<svg width="169" height="28" viewBox="0 0 169 28" fill="none" xmlns="http://www.w3.org/2000/svg"><g clip-path="url(#clip0_1_27)"><path d="M32.2674 24.4918H28.1455V9.8208H42.9844V24.4918H38.8634V12.6709H32.2674V24.4918Z" fill="#38B253"/><path d="M44.9823 13.8447V28.3702H48.7809V23.4028C50.0538 24.7867 52.1276 24.8913 52.6274 24.8913C56.2501 24.8913 58.4733 22.564 58.4733 19.1896C58.4733 15.6688 56.2744 13.4473 52.7027 13.4473C51.8023 13.4473 50.0538 13.594 48.6047 15.1244H48.53L48.5546 13.8447H44.9823ZM48.6047 19.1474C48.6047 16.172 50.4292 15.5854 51.5785 15.5854C52.7027 15.5854 54.5262 16.172 54.5262 19.1474C54.5262 20.9927 53.7522 22.7538 51.5785 22.7538C49.3551 22.7538 48.6047 20.9927 48.6047 19.1474Z" fill="#38B253"/><path d="M67.891 23.2139C66.4926 24.5333 65.1452 24.8904 63.6448 24.8904C59.5477 24.8904 59.3971 21.7881 59.3971 20.5099V13.8438H63.1948V20.0061C63.1948 22.1237 63.9211 22.7529 65.3189 22.7529C67.7161 22.7529 67.891 20.5937 67.891 19.8181V13.8438H71.6901V24.4914H67.891V23.2139Z" fill="#38B253"/><path d="M77.1378 20.0061H79.4614C81.2588 20.0061 81.6339 20.5515 81.6339 21.2644C81.6339 21.7251 81.383 22.3542 79.5085 22.3542H77.1378V20.0061ZM73.3401 13.8438V24.4914H80.885C83.6329 24.4914 85.5311 23.9467 85.5311 21.767C85.5311 20.0902 84.6055 19.3568 82.5081 18.9799V18.9166C83.8825 18.728 85.0823 17.8683 85.0823 16.4227C85.0823 13.8437 82.0839 13.8438 80.9096 13.8438H73.3401ZM77.1378 15.9828H79.1848C80.2595 15.9828 81.1829 16.1503 81.1829 17.0298C81.1829 17.9949 79.7344 18.0157 79.1101 18.0157H77.1378V15.9828Z" fill="#38B253"/><path d="M90.3269 17.2826C90.3269 15.7107 91.9755 15.5854 92.6506 15.5854C93.0757 15.5854 94.6484 15.6065 94.6997 16.9895C94.6997 17.0943 94.6997 17.1781 94.6997 17.2826C94.6247 18.3306 93.6253 18.1212 90.8283 18.4773C88.5283 18.7916 86.105 19.3779 86.105 21.8101C86.105 22.6905 86.4801 24.8913 90.5273 24.8913C92.0772 24.8913 93.7762 24.4924 94.7738 23.445H94.8509L95.1743 24.4924H99.1712V24.3043C98.4469 24.1573 98.3968 23.445 98.4214 22.2919L98.4964 17.4288C98.5219 16.1931 98.3968 13.4473 92.6761 13.4473C91.3017 13.4473 86.8797 13.5726 86.7048 17.2826H90.3269ZM94.7243 20.0911C94.7243 22.2292 92.8753 22.7538 91.9521 22.7538C91.2513 22.7538 90.0023 22.5224 90.0023 21.5169C90.0023 20.3216 91.4259 20.0911 92.2263 19.9863C93.7003 19.7766 93.5749 19.8398 94.7243 19.4201V20.0911Z" fill="#38B253"/><path d="M98.9224 15.9828V13.8438H111.113V15.9828H106.916V24.4914H103.12V15.9828H98.9224Z" fill="#38B253"/><path d="M115.961 12.6709H125.429V9.8208H111.838V24.4918H120.182C124.23 24.4918 126.827 23.0676 126.827 20.0695C126.827 15.3754 121.631 15.27 120.182 15.27H115.961V12.6709ZM115.961 18.1207H119.383C120.385 18.1207 122.381 18.2258 122.381 19.9858C122.381 21.3694 120.932 21.6415 119.309 21.6415H115.961V18.1207Z" fill="#38B253"/><path d="M131.778 17.2826C131.778 15.7107 133.427 15.5854 134.1 15.5854C134.525 15.5854 136.1 15.6065 136.151 16.9895C136.151 17.0943 136.151 17.1781 136.151 17.2826C136.075 18.3306 135.076 18.1212 132.276 18.4773C129.979 18.7916 127.556 19.3779 127.556 21.8101C127.556 22.6905 127.93 24.8913 131.977 24.8913C133.526 24.8913 135.225 24.4924 136.224 23.445H136.298L136.624 24.4924H140.621V24.3043C139.899 24.1573 139.847 23.445 139.872 22.2919L139.947 17.4288C139.972 16.1931 139.847 13.4473 134.125 13.4473C132.753 13.4473 128.329 13.5726 128.155 17.2826H131.778ZM136.174 20.0911C136.174 22.2292 134.325 22.7538 133.402 22.7538C132.702 22.7538 131.453 22.5224 131.453 21.5169C131.453 20.3216 132.876 20.0911 133.675 19.9863C135.15 19.7766 135.025 19.8398 136.174 19.4201V20.0911Z" fill="#38B253"/><path d="M145.365 24.4914H141.567V13.8438H145.365V17.8476H149.937V13.8438H153.735V24.4914H149.937V19.9853H145.365V24.4914Z" fill="#38B253"/><path d="M163.326 13.8438H167.547L162.327 18.8319L167.798 24.4914H163.35L159.253 19.8389H159.18V24.4914H155.383V13.8438H159.18V18.1202H159.253L163.326 13.8438Z" fill="#38B253"/><path d="M0.567017 24.5309H10.0788V14.9553H0.567017V24.5309Z" fill="#232A42"/><path d="M19.8763 5.10537C19.8763 8.36142 19.8763 16.2143 19.8763 19.4704C18.9729 19.4704 18.8138 19.4704 17.9359 19.4704C17.098 12.3661 12.6639 7.90347 5.6058 7.06004C5.6058 6.17625 5.6058 6.01667 5.6058 5.10537C8.84045 5.10537 16.6416 5.10537 19.8763 5.10537ZM0.576782 0.0432129V11.9617H3.09205C9.71106 11.9617 13.0672 15.3397 13.0672 22.001V24.5332H24.9053V0.0432129H0.576782Z" fill="#38B253"/></g><defs><clipPath id="clip0_1_27"><rect width="168" height="28" fill="white" transform="translate(0.0291748)"/></clipPath></defs></svg>