<svg width="37" height="28" viewBox="0 0 37 28" fill="none" xmlns="http://www.w3.org/2000/svg"><g clip-path="url(#clip0_1_18)"><path d="M7.06597 27.9378V26.0794C7.06597 25.367 6.63335 24.9024 5.89172 24.9024C5.52091 24.9024 5.11919 25.0263 4.84108 25.4289C4.62477 25.0882 4.31575 24.9024 3.85223 24.9024C3.54322 24.9024 3.23421 24.9953 2.987 25.336V24.9643H2.33807V27.9378H2.987V26.2962C2.987 25.7696 3.26511 25.5219 3.69773 25.5219C4.13035 25.5219 4.34666 25.8006 4.34666 26.2962V27.9378H4.99559V26.2962C4.99559 25.7696 5.3046 25.5219 5.70631 25.5219C6.13893 25.5219 6.35524 25.8006 6.35524 26.2962V27.9378H7.06597ZM16.6763 24.9643H15.6256V24.0661H14.9767V24.9643H14.3896V25.5528H14.9767V26.9157C14.9767 27.5971 15.2548 27.9997 15.9964 27.9997C16.2745 27.9997 16.5836 27.9068 16.7999 27.7829L16.6145 27.2254C16.4291 27.3493 16.2128 27.3803 16.0582 27.3803C15.7492 27.3803 15.6256 27.1944 15.6256 26.8847V25.5528H16.6763V24.9643ZM22.1767 24.9024C21.8059 24.9024 21.5587 25.0882 21.4042 25.336V24.9643H20.7552V27.9378H21.4042V26.2652C21.4042 25.7697 21.6205 25.4909 22.0222 25.4909C22.1458 25.4909 22.3003 25.5219 22.4239 25.5528L22.6093 24.9334C22.4857 24.9024 22.3003 24.9024 22.1767 24.9024ZM13.8643 25.2121C13.5552 24.9953 13.1226 24.9024 12.6591 24.9024C11.9175 24.9024 11.4231 25.2741 11.4231 25.8626C11.4231 26.3581 11.7939 26.6369 12.4428 26.7298L12.7518 26.7608C13.0917 26.8227 13.2771 26.9157 13.2771 27.0705C13.2771 27.2873 13.0299 27.4422 12.5973 27.4422C12.1647 27.4422 11.8248 27.2874 11.6085 27.1325L11.2994 27.6281C11.6394 27.8759 12.1029 27.9997 12.5664 27.9997C13.4316 27.9997 13.9261 27.5971 13.9261 27.0396C13.9261 26.513 13.5243 26.2343 12.9063 26.1413L12.5973 26.1104C12.3192 26.0794 12.1029 26.0174 12.1029 25.8316C12.1029 25.6148 12.3192 25.4909 12.6591 25.4909C13.0299 25.4909 13.4007 25.6458 13.5861 25.7387L13.8643 25.2121ZM31.1072 24.9024C30.7364 24.9024 30.4891 25.0882 30.3346 25.336V24.9643H29.6857V27.9378H30.3346V26.2652C30.3346 25.7697 30.551 25.4909 30.9527 25.4909C31.0763 25.4909 31.2308 25.5219 31.3544 25.5528L31.5398 24.9334C31.4162 24.9024 31.2308 24.9024 31.1072 24.9024ZM22.8256 26.4511C22.8256 27.3493 23.4437 27.9997 24.4016 27.9997C24.8342 27.9997 25.1432 27.9068 25.4522 27.659L25.1432 27.1325C24.896 27.3183 24.6488 27.4112 24.3707 27.4112C23.8454 27.4112 23.4746 27.0396 23.4746 26.4511C23.4746 25.8935 23.8454 25.5219 24.3707 25.4909C24.6488 25.4909 24.896 25.5838 25.1432 25.7697L25.4522 25.2431C25.1432 24.9953 24.8342 24.9024 24.4016 24.9024C23.4437 24.9024 22.8256 25.5528 22.8256 26.4511ZM28.8205 26.4511V24.9643H28.1716V25.336C27.9552 25.0573 27.6462 24.9024 27.2445 24.9024C26.4102 24.9024 25.7612 25.5528 25.7612 26.4511C25.7612 27.3493 26.4102 27.9997 27.2445 27.9997C27.6771 27.9997 27.9861 27.8449 28.1716 27.5661V27.9378H28.8205V26.4511ZM26.4411 26.4511C26.4411 25.9245 26.781 25.4909 27.3372 25.4909C27.8625 25.4909 28.2334 25.8935 28.2334 26.4511C28.2334 26.9776 27.8625 27.4112 27.3372 27.4112C26.781 27.3803 26.4411 26.9776 26.4411 26.4511ZM18.6849 24.9024C17.8196 24.9024 17.2016 25.5219 17.2016 26.4511C17.2016 27.3803 17.8196 27.9997 18.7158 27.9997C19.1484 27.9997 19.581 27.8758 19.9209 27.5971L19.6119 27.1325C19.3647 27.3183 19.0557 27.4422 18.7467 27.4422C18.3449 27.4422 17.9432 27.2564 17.8505 26.7298H20.0445C20.0445 26.6369 20.0445 26.575 20.0445 26.482C20.0754 25.5219 19.5192 24.9024 18.6849 24.9024ZM18.6849 25.4599C19.0866 25.4599 19.3647 25.7077 19.4265 26.1723H17.8814C17.9432 25.7697 18.2213 25.4599 18.6849 25.4599ZM34.7844 26.4511V23.7874H34.1355V25.336C33.9192 25.0573 33.6102 24.9024 33.2085 24.9024C32.3741 24.9024 31.7252 25.5528 31.7252 26.4511C31.7252 27.3493 32.3741 27.9997 33.2085 27.9997C33.6411 27.9997 33.9501 27.8449 34.1355 27.5661V27.9378H34.7844V26.4511ZM32.405 26.4511C32.405 25.9245 32.7449 25.4909 33.3012 25.4909C33.8265 25.4909 34.1973 25.8935 34.1973 26.4511C34.1973 26.9776 33.8265 27.4112 33.3012 27.4112C32.7449 27.3803 32.405 26.9776 32.405 26.4511ZM10.7123 26.4511V24.9643H10.0634V25.336C9.84709 25.0573 9.53807 24.9024 9.13636 24.9024C8.30202 24.9024 7.65309 25.5528 7.65309 26.4511C7.65309 27.3493 8.30202 27.9997 9.13636 27.9997C9.56898 27.9997 9.87799 27.8449 10.0634 27.5661V27.9378H10.7123V26.4511ZM8.30202 26.4511C8.30202 25.9245 8.64193 25.4909 9.19815 25.4909C9.72348 25.4909 10.0943 25.8935 10.0943 26.4511C10.0943 26.9776 9.72348 27.4112 9.19815 27.4112C8.64193 27.3803 8.30202 26.9776 8.30202 26.4511Z" fill="black"/><path d="M23.3815 2.38501H13.6476V19.916H23.3815V2.38501Z" fill="#FF5F00"/><path d="M14.2657 11.1504C14.2657 7.5885 15.9343 4.42921 18.4991 2.38496C16.6142 0.898234 14.2348 0 11.6391 0C5.4897 0 0.514587 4.98673 0.514587 11.1504C0.514587 17.3142 5.4897 22.3009 11.6391 22.3009C14.2348 22.3009 16.6142 21.4027 18.4991 19.9159C15.9343 17.9027 14.2657 14.7124 14.2657 11.1504Z" fill="#EB001B"/><path d="M36.5144 11.1504C36.5144 17.3142 31.5393 22.3009 25.3899 22.3009C22.7942 22.3009 20.4148 21.4027 18.5298 19.9159C21.1256 17.8717 22.7633 14.7124 22.7633 11.1504C22.7633 7.5885 21.0947 4.42921 18.5298 2.38496C20.4148 0.898234 22.7942 0 25.3899 0C31.5393 0 36.5144 5.0177 36.5144 11.1504Z" fill="#F79E1B"/></g><defs><clipPath id="clip0_1_18"><rect width="36" height="28" fill="white" transform="translate(0.514587)"/></clipPath></defs></svg>