<svg width="89" height="28" viewBox="0 0 89 28" fill="none" xmlns="http://www.w3.org/2000/svg"><g clip-path="url(#clip0_1_49)"><path d="M35.0572 14.5603C35.0572 15.7312 34.2023 16.6985 33.0458 16.7494H31.9898V19.9567H33.0458C36.0126 19.9567 38.4263 17.513 38.4263 14.5094V7.12757H45.1143V20.0076H48.4835V3.86938H35.0572V14.5603Z" fill="#0A0A28"/><path d="M84.7902 3.86938V10.1312H75.9399V3.86938H72.5707V20.0076H75.9399V13.3385H84.7902V20.0076H88.109V3.86938H84.7902Z" fill="#0A0A28"/><path d="M65.078 3.86938V12.7276C65.078 15.273 63.0163 17.3094 60.502 17.3094H60.3511C57.9374 17.4112 55.8757 15.5276 55.7751 13.0839C55.7751 12.9821 55.7751 12.8803 55.7751 12.7276V3.86938H52.6574V12.7276C52.6574 17.7167 56.0768 20.4658 60.3008 20.4658H60.4517C62.1614 20.5167 63.8208 19.8039 65.0277 18.5312V20.0585C65.0277 23.4694 62.6643 24.6403 60.4517 24.6403H60.3008C58.4403 24.6403 56.8311 23.5203 56.1271 21.7894L53.2105 22.9094C54.3671 25.8621 57.1831 27.7967 60.3511 27.7967H60.502C65.0277 27.7967 68.1957 24.5894 68.1957 20.0585V3.86938H65.078Z" fill="#0A0A28"/><path d="M0.0583496 0H22.6366V22.8582H0.0583496V0Z" fill="#FF9501"/><path d="M0.0583496 0H22.6366V22.8582H0.0583496V0Z" fill="#FFB401"/><path d="M0.0583496 0H22.6366V22.8582H0.0583496V0Z" fill="url(#paint0_linear_1_49)"/><path d="M0.0583496 0H22.6366V22.8582H0.0583496V0Z" fill="url(#paint1_linear_1_49)"/><path d="M0.0583496 0H22.6366V22.8582H0.0583496V0Z" fill="url(#paint2_linear_1_49)"/></g><defs><linearGradient id="paint0_linear_1_49" x1="26.2236" y1="8.44017" x2="9.73477" y2="11.6717" gradientUnits="userSpaceOnUse"><stop stop-color="#FF7001"/><stop offset="1" stop-color="#FF7001" stop-opacity="0"/></linearGradient><linearGradient id="paint1_linear_1_49" x1="12.476" y1="9.32965" x2="6.74643" y2="19.7271" gradientUnits="userSpaceOnUse"><stop stop-color="#FFB301" stop-opacity="0"/><stop offset="1" stop-color="#FFB301"/></linearGradient><linearGradient id="paint2_linear_1_49" x1="19.7949" y1="-5.36404" x2="12.3277" y2="9.11891" gradientUnits="userSpaceOnUse"><stop stop-color="#FF7001"/><stop offset="1" stop-color="#FF7001" stop-opacity="0"/></linearGradient><clipPath id="clip0_1_49"><rect width="88" height="28" fill="white" transform="translate(0.0583496)"/></clipPath></defs></svg>