<svg width="32" height="32" viewBox="0 0 32 32" fill="none" xmlns="http://www.w3.org/2000/svg">
<path d="M23.592 19.3926C24.132 19.7501 24.755 20.0166 25.4825 20.1531C24.1915 17.2086 26.139 11.0341 22.1485 6.49707C16.5235 6.66607 15.745 24.8581 23.586 22.4391C23.087 22.2221 22.7745 21.7811 22.591 21.2241C23.1955 21.3971 23.9015 21.4026 24.725 21.1501C24.0695 20.8671 23.7365 20.1991 23.592 19.3926Z" fill="#1E110E"/>
<path d="M9.47233 6.49756C5.48283 11.0346 7.80933 17.2091 6.51733 20.1536C7.24483 20.0171 7.86783 19.7501 8.40783 19.3931C8.26433 20.1996 7.93033 20.8676 7.27583 21.1511C8.09833 21.4041 8.80433 21.3981 9.40883 21.2251C9.22533 21.7816 8.91383 22.2231 8.41383 22.4401C16.2548 24.8586 15.0973 6.66656 9.47233 6.49756Z" fill="#1E110E"/>
<path d="M24.2057 12.6963C22.9352 12.8503 22.0182 17.1038 22.8172 18.2273C22.9287 18.3843 23.5837 18.6343 24.0692 17.6443C24.3377 17.0943 25.1142 16.6373 25.3532 15.5048C25.6617 14.0548 25.4692 12.5428 24.2057 12.6963Z" fill="#FFD8B4"/>
<path d="M7.79532 12.6963C9.06582 12.8503 9.98282 17.1038 9.18382 18.2273C9.07132 18.3843 8.41732 18.6343 7.93182 17.6443C7.66232 17.0943 6.88682 16.6373 6.64682 15.5048C6.33932 14.0548 6.53182 12.5428 7.79532 12.6963Z" fill="#FFD8B4"/>
<path d="M24.1725 13.5115C23.8415 13.616 23.479 14.121 23.283 14.9595C24.442 14.7105 24.152 16.6405 23.1455 16.6765C23.1545 16.871 23.168 17.071 23.1915 17.281C23.677 16.576 24.17 16.859 24.6585 15.811C25.097 14.8655 24.9925 13.2535 24.1725 13.5115Z" fill="#DEB38A"/>
<path d="M8.71826 14.9575C8.52176 14.1205 8.16176 13.615 7.83076 13.5115C7.00926 13.2535 6.90476 14.8655 7.34426 15.8115C7.83276 16.8595 8.32576 16.5765 8.81126 17.2815C8.83476 17.0705 8.84826 16.8705 8.85626 16.677C7.85976 16.629 7.57426 14.7225 8.71826 14.9575Z" fill="#DEB38A"/>
<path d="M15.9998 4.51709C10.4958 4.51709 7.84435 8.99959 8.17585 14.7636C8.24435 15.9221 8.56635 17.5941 8.96385 19.0266C9.78885 22.0031 14.1453 25.0001 15.9998 25.0001C17.8543 25.0001 22.2108 22.0031 23.0358 19.0266C23.4343 17.5941 23.7563 15.9226 23.8248 14.7636C24.1553 9.00009 21.5048 4.51709 15.9998 4.51709Z" fill="#FFD8B4"/>
<path d="M21.9803 12.271C20.7213 11.6045 18.3123 11.572 17.4148 12.036C17.2223 12.126 17.3503 12.7575 17.5113 12.6975C18.7613 12.2025 20.7788 12.1915 21.9498 12.7395C22.1063 12.8115 22.1708 12.364 21.9803 12.271Z" fill="#A88868"/>
<path d="M10.0204 12.271C11.2794 11.6045 13.6864 11.572 14.5849 12.036C14.7774 12.126 14.6504 12.7575 14.4894 12.6975C13.2364 12.2025 11.2219 12.1915 10.0499 12.7395C9.89442 12.8115 9.82992 12.364 10.0204 12.271Z" fill="#A88868"/>
<path d="M17.4856 18.0546C17.3291 17.9441 16.9601 18.1131 16.0001 18.1131C15.0421 18.1131 14.6731 17.9441 14.5146 18.0546C14.3271 18.1866 14.6271 18.7851 16.0001 18.7851C17.3751 18.7851 17.6751 18.1866 17.4856 18.0546Z" fill="#DEB38A"/>
<path d="M15.9997 20.3226C14.7622 19.9591 12.9272 20.4956 12.9272 20.4956C13.6262 21.2571 14.1382 22.2436 15.9997 22.2436C18.1327 22.2436 18.4957 21.1236 19.0727 20.4956C19.0727 20.4951 17.2372 19.9571 15.9997 20.3226Z" fill="#DEB38A"/>
<path d="M13.3884 20.624C14.6864 21.713 17.3074 21.7205 18.6119 20.624C17.2294 20.6835 14.7814 20.6845 13.3884 20.624Z" fill="white"/>
<path d="M14.7751 14.5428C14.8221 14.9073 14.5751 15.3393 13.8901 15.6628C13.4556 15.8688 12.5501 16.1113 11.3616 15.6093C10.8286 15.3853 10.3096 14.6848 10.3556 14.2983C11.0006 13.0838 14.1726 12.9058 14.7751 14.5428Z" fill="white"/>
<path d="M12.6242 15.7645C13.3123 15.7645 13.8702 15.2066 13.8702 14.5185C13.8702 13.8303 13.3123 13.2725 12.6242 13.2725C11.936 13.2725 11.3782 13.8303 11.3782 14.5185C11.3782 15.2066 11.936 15.7645 12.6242 15.7645Z" fill="url(#paint0_linear_1_487)"/>
<path d="M12.001 14.495C12.001 15.3575 13.247 15.3575 13.247 14.495C13.247 13.695 12.001 13.695 12.001 14.495Z" fill="#1A1626"/>
<path d="M11.8115 14.1459C11.8115 14.5074 12.334 14.5074 12.334 14.1459C12.334 13.8114 11.8115 13.8114 11.8115 14.1459Z" fill="#AB968C"/>
<path d="M14.7814 14.591C14.2754 12.965 10.8264 13.205 10.3564 14.2985C10.5314 12.898 14.3504 12.5285 14.7814 14.591Z" fill="#DEB38A"/>
<path d="M17.2248 14.5428C17.1788 14.9073 17.4258 15.3393 18.1103 15.6628C18.5448 15.8688 19.4493 16.1113 20.6388 15.6093C21.1718 15.3853 21.6908 14.6848 21.6438 14.2983C21.0003 13.0838 17.8283 12.9058 17.2248 14.5428Z" fill="white"/>
<path d="M19.3485 15.7645C20.0367 15.7645 20.5945 15.2066 20.5945 14.5185C20.5945 13.8303 20.0367 13.2725 19.3485 13.2725C18.6604 13.2725 18.1025 13.8303 18.1025 14.5185C18.1025 15.2066 18.6604 15.7645 19.3485 15.7645Z" fill="url(#paint1_linear_1_487)"/>
<path d="M18.7263 14.495C18.7263 15.3575 19.9723 15.3575 19.9723 14.495C19.9723 13.695 18.7263 13.695 18.7263 14.495Z" fill="#1A1626"/>
<path d="M18.5369 14.1459C18.5369 14.5074 19.0594 14.5074 19.0594 14.1459C19.0594 13.8114 18.5369 13.8114 18.5369 14.1459Z" fill="#AB968C"/>
<path d="M17.2192 14.591C17.7242 12.9655 21.1712 13.198 21.6432 14.2985C21.4687 12.898 17.6502 12.5285 17.2192 14.591Z" fill="#DEB38A"/>
<path d="M16.0012 3C12.6517 3 10.9787 4.517 10.6387 5.2365C6.5897 6.1625 5.2872 12.9945 8.3182 15.909C8.6952 12.8035 9.0577 10.808 11.1217 8.7065C12.3257 10.32 14.8267 11.2275 17.0662 11.2275C16.0057 10.457 15.2832 9.702 14.7157 8.9985C18.4552 10.715 22.6432 11.8135 23.6827 15.909C27.2807 10.179 24.2922 3 16.0012 3Z" fill="url(#paint2_linear_1_487)"/>
<path d="M10.6302 5.23633C10.5902 7.44983 11.7222 10.2338 17.0687 11.2273C13.2442 11.4858 9.31972 9.17433 10.6302 5.23633Z" fill="#1E110E"/>
<path d="M10.8755 8.30615C9.483 9.67915 8.0075 12.2752 8.304 15.9087C8.5805 12.9062 9.9605 10.4337 11.2095 8.83215C11.1205 8.73565 10.9505 8.41515 10.8755 8.30615Z" fill="#1E110E"/>
<path d="M13.3525 7.61719C16.2345 10.3692 22.9395 9.38469 23.6965 15.9087C21.9035 10.2722 15.824 11.5367 13.3525 7.61719Z" fill="#1E110E"/>
<path d="M28.4932 19H3.50725C3.19475 19 2.96825 19.206 3.00425 19.458L4.57825 30.541C4.61375 30.793 4.89875 31 5.21025 31H26.7892C27.1017 31 27.3868 30.793 27.4223 30.541L28.9963 19.458C29.0322 19.206 28.8048 19 28.4932 19Z" fill="url(#paint3_linear_1_487)"/>
<path d="M16 23.7999C16.827 23.7999 17.5 24.3389 17.5 24.9999C17.5 25.6619 16.827 26.1999 16 26.1999C15.1735 26.1999 14.5 25.6619 14.5 24.9999C14.5 24.3389 15.1735 23.7999 16 23.7999ZM16 23.4004C14.896 23.4004 14 24.1164 14 24.9999C14 25.8834 14.896 26.6004 16 26.6004C17.1045 26.6004 18 25.8834 18 24.9999C18 24.1164 17.1045 23.4004 16 23.4004Z" fill="#E6EBEF"/>
<path d="M16.401 25.1603C16.3335 25.1603 16.3 25.1338 16.3 25.0813V24.9213C16.3 24.8668 16.3335 24.8403 16.401 24.8403H17.05C17.1175 24.8403 17.151 24.8668 17.151 24.9213V25.0003C17.151 25.5093 16.636 25.9213 16 25.9213C15.6915 25.9213 15.4015 25.8228 15.1875 25.6518C15.1395 25.6128 15.1395 25.5768 15.1865 25.5383L15.4 25.3683C15.447 25.3313 15.494 25.3313 15.5405 25.3683C15.6625 25.4648 15.8255 25.5208 16 25.5208C16.289 25.5208 16.534 25.3703 16.6195 25.1603H16.401Z" fill="#E6EBEF"/>
<defs>
<linearGradient id="paint0_linear_1_487" x1="12.6252" y1="15.765" x2="12.6252" y2="13.2723" gradientUnits="userSpaceOnUse">
<stop stop-color="#A6694A"/>
<stop offset="1" stop-color="#4F2A1E"/>
</linearGradient>
<linearGradient id="paint1_linear_1_487" x1="19.3491" y1="15.765" x2="19.3491" y2="13.2723" gradientUnits="userSpaceOnUse">
<stop stop-color="#A6694A"/>
<stop offset="1" stop-color="#4F2A1E"/>
</linearGradient>
<linearGradient id="paint2_linear_1_487" x1="15.9184" y1="15.909" x2="15.9184" y2="3" gradientUnits="userSpaceOnUse">
<stop stop-color="#1E110E"/>
<stop offset="0.2821" stop-color="#31211E"/>
<stop offset="0.7266" stop-color="#493632"/>
<stop offset="1" stop-color="#523E3A"/>
</linearGradient>
<linearGradient id="paint3_linear_1_487" x1="16.0005" y1="31" x2="16.0005" y2="19" gradientUnits="userSpaceOnUse">
<stop stop-color="#99A8AE"/>
<stop offset="0.9333" stop-color="#CFD8DD"/>
<stop offset="0.9818" stop-color="#E6EBEF"/>
</linearGradient>
</defs>
</svg>
