<svg width="65" height="28" viewBox="0 0 65 28" fill="none" xmlns="http://www.w3.org/2000/svg">
<g clip-path="url(#clip0_1_41)">
<path d="M15.8043 19.6782C16.2743 19.6782 16.7095 19.8174 17.097 20.0973C17.4797 20.3727 18.0131 21.0085 18.6781 21.9852C19.287 22.8972 19.8138 23.596 20.2424 24.0677H22.2804V23.9275C21.9581 23.8925 21.6435 23.7478 21.3475 23.4997C21.0336 23.2368 20.5954 22.6858 20.0504 21.8593C19.5756 21.1268 19.1806 20.5925 18.8761 20.2703C18.5785 19.9541 18.2743 19.7022 17.9696 19.5272L17.8237 19.441L17.9844 19.3974C19.4022 19.0172 20.0915 18.2773 20.0915 17.1377C20.0915 16.4438 19.7776 15.8575 19.168 15.4085C18.5531 14.9552 17.714 14.7258 16.6753 14.7258H12.4614V14.8595C12.9169 14.8703 13.2295 14.9871 13.3934 15.208C13.5664 15.4344 13.6473 15.8282 13.6473 16.4095V22.3584C13.6473 22.4695 13.6406 22.5751 13.635 22.6793C14.1916 23.054 14.6716 23.3302 15.1374 23.5373C14.9665 23.2988 14.8852 22.9101 14.8852 22.357V19.6784H15.8043V19.6782ZM14.8853 14.9461H16.0533C16.8603 14.9461 17.5224 15.1516 18.0169 15.5598C18.516 15.9672 18.768 16.5094 18.768 17.1681C18.768 17.8459 18.5412 18.3949 18.0904 18.8042C17.6433 19.2132 17.0229 19.4194 16.2415 19.4194H14.8855V14.9461H14.8853ZM39.1605 22.485C39.1655 22.5547 39.1679 22.6213 39.1679 22.6858C39.1679 23.0763 39.0828 23.3573 38.9053 23.5537C38.7379 23.7369 38.4634 23.8585 38.0773 23.9251V24.0677H41.6939V23.9275C41.2494 23.8824 40.9446 23.7551 40.7627 23.5459C40.5784 23.3242 40.4574 22.9041 40.3957 22.2606L39.8721 16.4129C39.865 16.3367 39.865 16.2632 39.865 16.1887C39.865 15.3488 40.2559 14.9001 41.0388 14.8592V14.7255H38.684L35.2523 22.2889L35.1878 22.146L31.8619 14.7255H29.3322V14.8679C29.8588 14.9586 30.3111 15.1841 30.6705 15.5437L30.6964 15.5657L30.6925 15.6002L30.0645 22.1239C29.9883 22.8096 29.85 23.2577 29.6498 23.4937C29.4554 23.716 29.1446 23.8622 28.7244 23.9249V24.0675H31.8374V23.9236C30.9335 23.7538 30.4737 23.2424 30.4737 22.4081C30.4737 22.3268 30.4785 22.2383 30.4854 22.146L31.0976 16.051L34.7212 24.0677H34.906L38.5756 16.0299L39.1605 22.485ZM27.2657 14.7255H23.6486V14.8592C24.1001 14.8705 24.4028 14.9851 24.5737 15.2064C24.7496 15.4342 24.8331 15.8389 24.8331 16.4437V22.3582C24.8331 22.9503 24.7462 23.3522 24.569 23.5814C24.3969 23.8093 24.0934 23.9237 23.6486 23.9347V24.0678H27.2657V23.9347C26.8344 23.9212 26.531 23.801 26.3563 23.5799C26.1718 23.3466 26.0847 22.949 26.0847 22.3584V16.4438C26.0847 15.8516 26.1718 15.4527 26.3563 15.2172C26.531 14.9943 26.8344 14.8708 27.2657 14.8595V14.7255ZM9.17156 23.8171C9.72908 24.2171 10.4766 24.7025 11.3443 24.9514C12.021 25.1624 12.5927 25.2566 13.1472 25.2566C13.4668 25.2566 13.7781 25.2273 14.0892 25.1587C13.6746 25.1065 13.3054 25.0072 12.9711 24.8514C11.7332 24.3025 10.6712 23.463 9.50888 22.4992C9.11225 22.1663 8.73644 21.8244 8.29136 21.4115L8.22541 21.3545L8.23507 21.347L4.67051 18.067L4.72907 18.0161L8.48485 14.6456C8.88013 14.2822 9.31962 13.9817 9.79458 13.7591C10.2757 13.5343 10.7075 13.4218 11.0791 13.4218H11.6018V13.2407H7.18312V13.4331C7.68872 13.5364 7.94786 13.7636 7.94786 14.1076C7.94786 14.3592 7.73551 14.676 7.2948 15.0767L3.2906 18.6541L5.7119 20.8751C6.63284 21.7555 7.85911 22.8832 9.17156 23.8171Z" fill="#232A42"/>
<path d="M3.53654 13.84C3.74119 13.574 4.09028 13.4345 4.58064 13.4216V13.2405H0.395325V13.4216C0.921753 13.4329 1.27432 13.5658 1.46931 13.8291C1.66551 14.0909 1.76709 14.552 1.76709 15.2362V22.0788C1.76709 22.7448 1.66385 23.2021 1.46131 23.4735C1.26662 23.7364 0.908019 23.8809 0.395325 23.8874V24.0672H4.58049V23.8874C4.07293 23.8809 3.71976 23.7364 3.52944 23.4735C3.33037 23.202 3.23348 22.7447 3.23348 22.0788V15.2362C3.23363 14.5738 3.33264 14.117 3.53654 13.84ZM15.87 3.21223H12.8806V3.32715C13.2506 3.33392 13.5085 3.42838 13.6479 3.61189C13.7921 3.7981 13.8615 4.12947 13.8615 4.63036V9.51107C13.8615 9.99736 13.7876 10.3295 13.6413 10.5232C13.5009 10.7025 13.2478 10.8001 12.8806 10.8083V10.9229H15.8702V10.8083C15.5104 10.8001 15.2654 10.7046 15.1169 10.5192C14.9663 10.3275 14.8908 9.99405 14.8908 9.51107V4.63051C14.8908 4.14602 14.9663 3.81315 15.1169 3.61911C15.2654 3.43184 15.5104 3.33407 15.8702 3.3273V3.21223H15.87ZM23.3259 9.33087C23.14 9.87959 22.9401 10.224 22.7248 10.3937C22.5028 10.5691 22.1199 10.6587 21.5786 10.6587H20.3237C19.9236 10.6587 19.658 10.6011 19.5123 10.4844C19.3588 10.3644 19.2877 10.1571 19.2877 9.84469V4.61592C19.2877 4.15955 19.3647 3.83706 19.5226 3.63174C19.6774 3.43801 19.9197 3.33407 20.2506 3.3273V3.21238H17.2792V3.3273C17.6422 3.33407 17.8897 3.42116 18.0351 3.59504C18.1846 3.77644 18.2598 4.07577 18.2598 4.51604V9.44533C18.2598 9.92411 18.1808 10.2753 18.0227 10.4861C17.8687 10.6899 17.6203 10.8004 17.2792 10.8087V10.9233H22.97L23.4649 9.33117H23.3259V9.33087ZM12.6398 2.02635V1.97656H10.8982L7.91564 9.2337L7.86282 9.10479L5.42432 3.26759C5.42235 3.2551 5.41783 3.24247 5.41662 3.23073L4.89668 1.97656H2.24069V2.12863C2.61016 2.14292 3.33264 2.22851 3.55842 2.42119C3.77862 2.60365 4.02901 3.03128 4.32241 3.72455L7.3948 11.0282H7.59779L10.5258 3.93333C11.0795 2.64246 11.7338 2.05087 12.6398 2.02635ZM29.8478 9.33087C29.6627 9.86831 29.4598 10.224 29.2493 10.3937C29.0261 10.5691 28.646 10.6587 28.103 10.6587H26.9484C26.5482 10.6587 26.281 10.6011 26.1372 10.4844C25.9857 10.3623 25.9125 10.1571 25.9125 9.84469V4.61592C25.9125 4.15955 25.9885 3.83947 26.1503 3.63174C26.3006 3.43801 26.543 3.33407 26.877 3.3273V3.21238H23.9041V3.3273C24.2663 3.33407 24.5161 3.42116 24.6628 3.59504C24.8098 3.77644 24.8824 4.08329 24.8824 4.51604V9.44533C24.8824 9.92411 24.8012 10.2753 24.6482 10.4861C24.4935 10.6899 24.2453 10.7991 23.9039 10.8087V10.9233H29.4962L29.9888 9.33117H29.8478V9.33087ZM35.3678 7.79196L36.1704 9.96141C36.2142 10.079 36.2382 10.1885 36.2382 10.2847C36.2382 10.6208 35.9861 10.7974 35.4922 10.8084V10.923H38.4169V10.8084C38.0742 10.8043 37.8327 10.7436 37.6712 10.6229C37.5004 10.5043 37.3461 10.2445 37.1887 9.83145L34.7052 3.1271H33.894L31.5249 9.541C31.342 10.0273 31.1579 10.3495 30.9734 10.5088C30.7976 10.6601 30.5587 10.7585 30.2496 10.8043V10.923H32.362V10.8084C31.7972 10.7783 31.6786 10.49 31.6786 10.2457C31.6786 10.0551 31.751 9.76497 31.9032 9.36185L32.505 7.75225H35.353L35.3678 7.79196ZM32.6256 7.38899L33.9157 3.84639L33.9702 3.99771L35.2161 7.38899H32.6256Z" fill="#232A42"/>
<path d="M60.4526 3.38347C60.7928 2.80316 61.1475 2.30242 61.5196 1.87524C61.7303 1.63352 61.9489 1.41482 62.1707 1.22018C62.9922 0.504797 63.897 0.105743 64.918 0.000150416H60.257L59.5457 1.87524L58.9741 3.38347L57.9845 5.9959L52.9062 19.3956L52.2877 21.0237L52.2582 21.1049L51.7603 22.4167L51.6059 22.0094L44.6042 3.83426C44.5878 3.79124 44.5823 3.7586 44.5779 3.72311L43.1571 0H37.0809C37.4538 0.00270749 38.1404 0.0648294 39.2418 1.19446C39.9377 1.90608 40.5909 3.09557 41.4379 5.25675L50.26 27.9999H50.8457L53.25 21.6785L53.3938 21.3002L54.0962 19.453L59.2484 5.90535C59.6311 4.94012 60.0302 4.10215 60.4526 3.38347Z" fill="#232A42"/>
<path d="M50.4506 6.38774C50.5542 6.38774 50.6508 6.41978 50.738 6.48175C50.823 6.54237 50.9421 6.68436 51.0891 6.90126C51.2255 7.10718 51.3452 7.26271 51.4375 7.36846H51.8938V7.33567C51.8213 7.32679 51.7521 7.29611 51.6854 7.23955C51.6155 7.18089 51.519 7.05845 51.3956 6.87494C51.2898 6.71234 51.2025 6.59156 51.1349 6.51966C51.0666 6.44836 50.9985 6.39316 50.9315 6.3557L50.8978 6.33495L50.9356 6.32712C51.2519 6.23808 51.4048 6.07653 51.4048 5.82112C51.4048 5.66559 51.3346 5.53503 51.2007 5.43576C51.0625 5.33543 50.875 5.28203 50.6428 5.28203H49.7027V5.31347C49.8041 5.31452 49.8752 5.34114 49.9108 5.39214C49.9482 5.44132 49.9668 5.52781 49.9668 5.65822V6.98745C49.9668 7.01092 49.9668 7.03589 49.9637 7.05664C50.0881 7.14148 50.1957 7.20435 50.2999 7.24933C50.2603 7.19578 50.2436 7.10914 50.2436 6.98399V6.38804H50.4506V6.38774ZM50.244 5.33197H50.5032C50.6847 5.33197 50.8304 5.37875 50.9421 5.4687C51.0534 5.55805 51.1103 5.68048 51.1103 5.82714C51.1103 5.97996 51.0572 6.1027 50.9573 6.19295C50.8602 6.28546 50.7206 6.33104 50.5454 6.33104H50.2439V5.33197H50.244ZM55.6603 7.01513C55.6624 7.02942 55.6624 7.04521 55.6624 7.05845C55.6624 7.14704 55.6432 7.20992 55.6037 7.25279C55.5651 7.29475 55.5056 7.32138 55.4194 7.33567V7.36846H56.2257V7.33567C56.1279 7.32679 56.058 7.29851 56.0184 7.25143C55.9766 7.19999 55.9477 7.10718 55.9347 6.96128L55.8197 5.65792C55.817 5.64153 55.8169 5.62453 55.8169 5.60949C55.8169 5.42222 55.9042 5.32204 56.0781 5.31317V5.28173H55.5539L54.7875 6.97136L54.7727 6.93857L54.0313 5.28158H53.4648V5.31407C53.5845 5.33513 53.6868 5.38431 53.7645 5.46539L53.7719 5.46855V5.47938L53.6296 6.93511C53.6107 7.08613 53.581 7.18675 53.5374 7.23925C53.4944 7.28633 53.4242 7.32108 53.3308 7.33537V7.36816H54.0256V7.33537C53.8228 7.29581 53.7207 7.18284 53.7207 6.99768C53.7207 6.97828 53.7223 6.95737 53.7223 6.93827L53.8608 5.57805L54.6686 7.36801H54.7104L55.5302 5.57459L55.6603 7.01513ZM53.0055 5.28188H52.1993V5.31332C52.3007 5.31437 52.3688 5.34099 52.4038 5.38868C52.4442 5.44117 52.4644 5.52947 52.4644 5.66559V6.9873C52.4644 7.11726 52.4441 7.20751 52.4038 7.26001C52.3657 7.30949 52.2974 7.33567 52.1993 7.33837V7.36846H53.0055V7.33837C52.9103 7.33431 52.8416 7.30769 52.8018 7.26001C52.7603 7.20751 52.7424 7.11711 52.7424 6.9873V5.66559C52.7424 5.53503 52.7601 5.44493 52.8018 5.39379C52.8416 5.3437 52.9103 5.31437 53.0055 5.31332V5.28188ZM48.9688 7.31115C49.0932 7.4005 49.2595 7.50819 49.4535 7.56415C49.6053 7.61183 49.733 7.63274 49.8564 7.63274C49.9284 7.63274 49.998 7.62552 50.068 7.60988C49.9734 7.6004 49.8896 7.57784 49.8163 7.54369C49.5425 7.42095 49.3038 7.23398 49.0443 7.01648C48.9556 6.94278 48.8698 6.86712 48.7728 6.77537L48.7569 6.76138L48.761 6.76032L47.9659 6.02855L47.9774 6.01666L48.8178 5.26503C48.9041 5.18426 49.0027 5.11642 49.1072 5.06724C49.2167 5.0182 49.3118 4.99158 49.3937 4.99158H49.5101V4.95142H48.526V4.99504C48.6374 5.0182 48.6958 5.06829 48.6958 5.1444C48.6958 5.20141 48.6486 5.2709 48.5499 5.35919L47.6576 6.15986L48.1964 6.65593C48.4011 6.85148 48.6779 7.10177 48.9688 7.31115Z" fill="#232A42"/>
<path d="M47.7124 5.08603C47.7581 5.02601 47.8333 4.99503 47.9455 4.99157V4.95141H47.0106V4.99157C47.129 4.99503 47.2075 5.02601 47.2505 5.08332C47.2941 5.14063 47.3168 5.24457 47.3168 5.39814V6.92442C47.3168 7.07108 47.2923 7.17411 47.249 7.23578C47.2045 7.29489 47.1238 7.32483 47.0106 7.32678V7.36845H47.9455V7.32678C47.8311 7.32468 47.7537 7.29474 47.7086 7.23398C47.6662 7.17396 47.6443 7.07107 47.6443 6.92427V5.39814C47.6443 5.25089 47.666 5.14725 47.7124 5.08603ZM50.4643 2.71517H49.7963V2.74149C49.8786 2.74149 49.9349 2.763 49.9667 2.80391C49.9998 2.84618 50.0141 2.91853 50.0141 3.03104V4.12021C50.0141 4.2267 49.9996 4.30221 49.9667 4.34598C49.9334 4.3875 49.8762 4.4081 49.7963 4.4081V4.43428H50.4643V4.4081C50.383 4.4081 50.3291 4.38765 50.2949 4.34598C50.2603 4.30221 50.2435 4.2267 50.2435 4.12021V3.03104C50.2435 2.92094 50.2603 2.84723 50.2949 2.80587C50.3291 2.76285 50.383 2.74149 50.4643 2.74149V2.71517ZM52.1275 4.07914C52.0863 4.20158 52.0397 4.27905 51.9917 4.31725C51.944 4.35471 51.8578 4.37622 51.7362 4.37622H51.4576C51.3667 4.37622 51.3088 4.36223 51.2766 4.33636C51.2407 4.30973 51.2253 4.26401 51.2253 4.19421V3.02864C51.2253 2.92665 51.2448 2.85506 51.2784 2.80843C51.3138 2.76451 51.3669 2.74164 51.439 2.74164V2.71532H50.7793V2.74164C50.8601 2.74164 50.9129 2.75969 50.947 2.8C50.9804 2.83821 50.9971 2.90605 50.9971 3.00457V4.10577C50.9971 4.21121 50.9804 4.29063 50.9437 4.33831C50.9087 4.38133 50.8528 4.4078 50.7792 4.4078V4.43398H52.0459L52.1582 4.07899H52.1275V4.07914ZM49.7428 2.45044V2.4375H49.3522L48.6866 4.05583L48.6774 4.02785L48.1318 2.72795C48.1318 2.72239 48.1306 2.72119 48.1306 2.71848L48.015 2.4375H47.4206V2.473C47.5041 2.4751 47.6659 2.49421 47.7154 2.53708C47.7646 2.57859 47.82 2.6735 47.8861 2.82828L48.5711 4.45895H48.6163L49.2707 2.87401C49.3934 2.58626 49.542 2.4539 49.7428 2.45044ZM53.5808 4.07914C53.5393 4.19842 53.4954 4.27905 53.4472 4.31725C53.3974 4.35471 53.312 4.37622 53.1928 4.37622H52.9351C52.8458 4.37622 52.786 4.36223 52.7539 4.33636C52.7199 4.30973 52.7035 4.26401 52.7035 4.19421V3.02864C52.7035 2.92665 52.7217 2.85506 52.7566 2.80843C52.7919 2.76451 52.8426 2.74164 52.9187 2.74164V2.71532H52.2575V2.74164C52.3382 2.74164 52.3923 2.75969 52.4255 2.8C52.4564 2.83821 52.4744 2.9077 52.4744 3.00457V4.10577C52.4744 4.21121 52.4552 4.29063 52.4222 4.33831C52.3865 4.38133 52.3319 4.40585 52.2573 4.4078V4.43398H53.5028L53.6104 4.07899H53.5808V4.07914ZM54.8124 3.73755L54.9918 4.22069C55.0033 4.24686 55.0063 4.27153 55.0063 4.29258C55.0063 4.36554 54.9524 4.40585 54.8406 4.40795V4.43413H55.4929V4.40795C55.4177 4.40795 55.3623 4.39472 55.3258 4.36839C55.289 4.33982 55.2531 4.28311 55.2194 4.19105L54.6661 2.69471H54.4849L53.9572 4.12622C53.9148 4.23392 53.8735 4.30763 53.8319 4.34343C53.7924 4.37622 53.742 4.39637 53.6714 4.40795V4.43413H54.1427V4.40795C54.015 4.40389 53.9888 4.33846 53.9888 4.28311C53.9888 4.24159 54.0061 4.17782 54.0407 4.08471L54.1742 3.72732H54.8101L54.8124 3.73755ZM54.2016 3.64474L54.4889 2.85701L54.4998 2.8886L54.7798 3.64459H54.2016V3.64474Z" fill="#232A42"/>
</g>
<defs>
<clipPath id="clip0_1_41">
<rect width="64" height="28" fill="white" transform="translate(0.543762)"/>
</clipPath>
</defs>
</svg>
